:SAMPLES-PER-SECOND 30
:FULLY-SPECIFIED
:DEGREES
161
root  -41.5904 41.4521 -6.41361 -152.765 -87.2312 153.407
RightUpLeg  1.74468 -8.30587 -6.4058
RightLeg  4.85445 -0.35531 2.98058
RightFoot  -4.28948 0.00834811 -0.705792
RightToes  2.91037e-010 0 -3.6325e-017
Spine  1.43865 3.87713 6.55337
Spine1  15.1992 7.64947 -10.3817
HEad  -14.7944 -8.46187 -5.19802
LeftShoulder1  9.50573 -14.3901 -46.3405
LeftArm  -12.7784 11.2287 -23.6047
LeftForeArm  28.5009 -30.6321 -5.09868
LeftHand  -0.244104 0.0205437 5.32207
RightShoulder  7.09977 12.2709 38.9181
RightArm  -5.41955 28.975 37.0053
RightForeArm  -5.69296 66.0371 27.7423
RightHand  -2.73418 7.76887 -24.0926
LeftUpLeg  -0.998327 2.52981 -1.04741
LeftLeg  0.547498 9.99682 -3.98146
LeftFoot  0.0246489 -0.430898 4.32569
LeftToes  1.46425e-010 1.43544e-010 6.23391e-011
162
root  -41.6014 41.4497 -6.37515 -158.284 -86.8169 158.808
RightUpLeg  1.85067 -8.24326 -6.37744
RightLeg  4.76713 0.0672151 2.96127
RightFoot  -4.22454 0.00664753 -0.684204
RightToes  2.91037e-010 0 -3.6325e-017
Spine  1.32425 3.84394 6.74496
Spine1  15.1815 7.72755 -10.7738
HEad  -14.15 -8.16597 -4.90852
LeftShoulder1  9.44433 -14.3764 -46.0682
LeftArm  -12.3484 11.2857 -23.7339
LeftForeArm  28.2481 -29.9822 -4.96119
LeftHand  -0.244104 0.0205437 5.32207
RightShoulder  6.97437 12.2633 38.1772
RightArm  -1.03684 30.9766 36.6884
RightForeArm  -15.3886 60.9588 22.225
RightHand  -2.40749 6.66501 -23.1856
LeftUpLeg  -0.90211 2.60001 -0.996268
LeftLeg  0.712196 10.4082 -3.94966
LeftFoot  -0.116636 -0.425443 4.33465
LeftToes  1.46425e-010 1.43544e-010 6.23391e-011
163
root  -41.6145 41.4478 -6.34363 -162.178 -86.414 162.706
RightUpLeg  1.81749 -8.15138 -6.31288
RightLeg  4.70247 0.408585 2.92401
RightFoot  -4.1688 0.00624831 -0.682276
RightToes  2.91037e-010 0 -3.6325e-017
Spine  1.2906 3.92025 7.20888
Spine1  15.189 8.02782 -11.4703
HEad  -14.1074 -8.03897 -4.5432
LeftShoulder1  9.39123 -14.3932 -45.7563
LeftArm  -11.6701 11.2928 -23.89
LeftForeArm  28.228 -29.0716 -4.75359
LeftHand  -0.244104 0.0205437 5.32207
RightShoulder  6.98139 12.4119 37.82
RightArm  1.34576 31.3539 36.0682
RightForeArm  -18.4165 59.5989 21.2216
RightHand  -2.12917 5.67086 -22.3767
LeftUpLeg  -0.930194 2.68165 -0.931406
LeftLeg  0.868923 10.7687 -3.944
LeftFoot  -0.249132 -0.418197 4.32031
LeftToes  1.46425e-010 1.43544e-010 6.23391e-011
164
root  -41.6269 41.4461 -6.31763 -163.058 -86.2273 163.678
RightUpLeg  1.69423 -8.11208 -6.31272
RightLeg  4.70508 0.548202 2.88532
RightFoot  -4.16613 0.00451671 -0.659114
RightToes  2.91037e-010 0 -3.6325e-017
Spine  1.4457 4.05995 7.52478
Spine1  15.1792 8.32442 -11.8999
HEad  -15.0448 -8.08599 -4.37422
LeftShoulder1  9.41456 -14.4239 -45.7925
LeftArm  -10.8897 11.1398 -23.8725
LeftForeArm  28.0202 -27.9321 -4.50833
LeftHand  -0.244104 0.0205437 5.32207
RightShoulder  7.02 12.4466 37.9619
RightArm  0.0269078 30.0632 35.5003
RightForeArm  -12.6653 62.5016 23.7721
RightHand  -2.06069 5.58418 -21.8437
LeftUpLeg  -1.0287 2.69071 -0.952771
LeftLeg  0.929686 10.9497 -3.95654
LeftFoot  -0.314452 -0.415834 4.32864
LeftToes  1.46425e-010 1.43544e-010 6.23391e-011
165
root  -41.6405 41.4458 -6.29402 -161.744 -86.3375 162.501
RightUpLeg  1.56877 -8.13028 -6.36948
RightLeg  4.73184 0.437138 2.86296
RightFoot  -4.20018 -0.000290204 -0.587668
RightToes  2.91037e-010 0 -3.6325e-017
Spine  1.61424 4.02551 7.38666
Spine1  15.1281 8.23654 -11.7225
HEad  -16.1849 -7.87737 -4.57555
LeftShoulder1  9.49441 -14.4113 -46.2274
LeftArm  -10.5461 11.3409 -23.6525
LeftForeArm  27.4088 -26.919 -4.31744
LeftHand  -0.244104 0.0205437 5.32207
RightShoulder  7.03312 12.2819 38.4841
RightArm  -3.03474 28.4764 35.7323
RightForeArm  -3.4341 67.0337 29.0096
RightHand  -2.03577 5.5977 -21.5641
LeftUpLeg  -1.14651 2.62033 -1.04733
LeftLeg  0.882332 10.8992 -3.96676
LeftFoot  -0.305395 -0.416711 4.36728
LeftToes  1.46425e-010 1.43544e-010 6.23391e-011
166
root  -41.6586 41.4461 -6.27593 -160.176 -86.5442 161.077
RightUpLeg  1.46665 -8.14989 -6.40741
RightLeg  4.75554 0.241706 2.85805
RightFoot  -4.22632 -0.00623547 -0.498053
RightToes  2.91037e-010 0 -3.6325e-017
Spine  1.5625 3.81319 6.93358
Spine1  15.1677 7.81676 -11.1245
HEad  -16.7243 -7.35539 -4.94032
LeftShoulder1  9.55595 -14.3449 -46.7132
LeftArm  -10.5572 12.0263 -23.5093
LeftForeArm  26.5184 -25.9138 -4.14481
LeftHand  -0.244104 0.0205437 5.32207
RightShoulder  7.08166 12.1533 39.1307
RightArm  -5.71234 27.497 36.6778
RightForeArm  3.6297 70.684 35.6007
RightHand  -2.04968 5.48386 -21.9182
LeftUpLeg  -1.23163 2.55648 -1.11623
LeftLeg  0.760861 10.7499 -3.98863
LeftFoot  -0.259882 -0.418711 4.41838
LeftToes  1.46425e-010 1.43544e-010 6.23391e-011
167
root  -41.6755 41.4464 -6.26527 -160.072 -86.6272 161.044
RightUpLeg  1.41564 -8.13826 -6.39359
RightLeg  4.78176 0.16461 2.85925
RightFoot  -4.21727 -0.00981331 -0.444747
RightToes  2.91037e-010 0 -3.6325e-017
Spine  1.39306 3.66263 6.53627
Spine1  15.324 7.47272 -10.5411
HEad  -16.7398 -6.92636 -5.06096
LeftShoulder1  9.55865 -14.2757 -46.9129
LeftArm  -10.0994 12.6561 -23.6776
LeftForeArm  25.4462 -24.3361 -3.87302
LeftHand  -0.244104 0.0205437 5.32207
RightShoulder  7.18782 12.191 39.6719
RightArm  -7.6177 27.0221 37.4879
RightForeArm  7.8618 72.7056 41.0399
RightHand  -2.24945 5.97051 -22.9851
LeftUpLeg  -1.23615 2.57036 -1.10151
LeftLeg  0.659145 10.6612 -4.02948
LeftFoot  -0.234691 -0.420649 4.46317
LeftToes  1.46425e-010 1.43544e-010 6.23391e-011
168
root  -41.6835 41.4462 -6.25236 -161.549 -86.572 162.451
RightUpLeg  1.49004 -8.1167 -6.36229
RightLeg  4.77787 0.236534 2.86614
RightFoot  -4.16792 -0.0099871 -0.443867
RightToes  2.91037e-010 0 -3.6325e-017
Spine  1.37625 3.69028 6.42898
Spine1  15.4208 7.41887 -10.2591
HEad  -16.5412 -6.79195 -4.77617
LeftShoulder1  9.52104 -14.2438 -46.8099
LeftArm  -8.94733 12.8721 -24.0268
LeftForeArm  24.4268 -22.0319 -3.63808
LeftHand  -0.244104 0.0205437 5.32207
RightShoulder  7.26009 12.2412 39.9691
RightArm  -8.713 26.9067 37.5833
RightForeArm  9.50549 73.1007 42.2129
RightHand  -2.49718 6.76473 -23.8332
LeftUpLeg  -1.15404 2.64157 -1.03572
LeftLeg  0.690163 10.6688 -4.04813
LeftFoot  -0.273687 -0.421665 4.48786
LeftToes  1.46425e-010 1.43544e-010 6.23391e-011
169
root  -41.686 41.445 -6.2228 -163.463 -86.4316 164.199
RightUpLeg  1.6658 -8.12929 -6.38074
RightLeg  4.73766 0.424624 2.88862
RightFoot  -4.10894 -0.00904799 -0.459849
RightToes  2.91037e-010 0 -3.6325e-017
Spine  1.4596 3.78443 6.58935
Spine1  15.4211 7.53338 -10.2941
HEad  -16.0258 -6.80793 -4.23071
LeftShoulder1  9.4837 -14.2437 -46.622
LeftArm  -8.21203 12.9511 -24.268
LeftForeArm  24.2293 -19.5399 -3.80071
LeftHand  -0.244104 0.0205437 5.32207
RightShoulder  7.22148 12.1825 39.8992
RightArm  -8.37202 27.4015 37.1746
RightForeArm  6.1369 71.4337 37.3812
RightHand  -2.58578 7.16636 -23.8884
LeftUpLeg  -1.02718 2.70173 -0.999309
LeftLeg  0.834995 10.7786 -4.02809
LeftFoot  -0.368922 -0.422401 4.50214
LeftToes  1.46425e-010 1.43544e-010 6.23391e-011
170
root  -41.6926 41.4415 -6.17671 -164.743 -86.1596 165.339
RightUpLeg  1.76835 -8.19866 -6.50086
RightLeg  4.76585 0.779282 2.92078
RightFoot  -4.10357 -0.00945412 -0.454536
RightToes  2.91037e-010 0 -3.6325e-017
Spine  1.32855 3.86297 6.85803
Spine1  15.5404 7.68765 -10.4995
HEad  -15.1501 -6.96119 -3.5971
LeftShoulder1  9.47894 -14.2637 -46.5442
LeftArm  -8.32937 13.2344 -24.3361
LeftForeArm  24.7445 -17.4559 -4.13487
LeftHand  -0.244104 0.0205437 5.32207
RightShoulder  7.10614 12.1056 39.4127
RightArm  -6.11461 28.574 36.675
RightForeArm  -2.04714 67.466 29.6308
RightHand  -2.47639 6.97349 -23.2527
LeftUpLeg  -0.891611 2.71929 -1.04979
LeftLeg  0.919731 11.0522 -4.03697
LeftFoot  -0.463211 -0.424898 4.53749
LeftToes  1.46425e-010 1.43544e-010 6.23391e-011
